<svg width="188" height="231" viewBox="0 0 188 231" fill="none" xmlns="http://www.w3.org/2000/svg">
<path fill-rule="evenodd" clip-rule="evenodd" d="M94.0153 22.6053L136.142 46.9243L178.269 71.2535V168.55L136.142 192.879L94.0153 217.208L51.8885 192.879L9.7514 168.55V71.2535L51.8885 46.9243L94.0153 22.6053ZM94.0153 41.987L127.737 61.4606L161.469 80.9546V158.849L127.737 178.322L94.0153 197.796L60.2832 178.322L26.5205 158.849V80.9546L60.2832 61.481L94.0153 42.0074V41.987Z" fill="#DABCA5"/>
<path fill-rule="evenodd" clip-rule="evenodd" d="M137.703 43.9456L115.772 31.2862L93.8419 18.6269L71.9216 31.2862L49.981 43.9456L6.12012 69.2643V170.539L28.0404 183.198L49.981 195.858L71.9114 208.517L93.8419 221.177L115.772 208.517L137.703 195.858L159.623 183.198L181.564 170.539V69.2643L137.703 43.9456ZM153.36 166.612L146.332 161.511L107.775 183.025L108.5 192.543L93.8419 200.958L85.6817 196.256L79.3576 192.604L80.296 184.443L42.5553 161.45L34.6807 166.816L23.6339 160.44V146.159L31.896 142.344V98.1737L23.6339 94.3586V79.3632L45.0543 66.9895L58.7328 59.094L83.2133 44.9555L93.8215 38.8349L128.931 59.094L164.05 79.3632V94.6646L156.512 98.1533V142.303L164.05 145.792V160.42L153.36 166.612Z" fill="url(#paint0_linear_3161_891)"/>
<path fill-rule="evenodd" clip-rule="evenodd" d="M135 48.6074L114.426 36.7233L93.8419 24.8393L73.2681 36.7233L52.6841 48.6074L11.5262 72.4266V167.479L32.1001 179.363L52.6841 191.247L73.2681 203.131L93.8419 214.964L114.426 203.08L135 191.196L155.584 179.312L176.168 167.428V72.4266L135 48.6074ZM159.745 81.8522V157.951L142.089 168.152L126.789 176.976L110.305 186.493L93.8419 196.001L86.202 191.584L60.8952 176.976L47.1352 169.04L27.9486 157.951V81.8522L48.0532 70.2436L60.8952 62.8275L83.8865 49.5663L93.8419 43.8028L126.799 62.8275L159.745 81.8522Z" fill="url(#paint1_linear_3161_891)"/>
<path d="M187.725 65.7246L174.485 58.0841L165.101 63.6436L136.142 46.9243L113.161 32.8878V16.8009L94.0153 6.50819V22.6053V32.3063V42.0074L127.737 61.481L161.469 80.9546L165.029 78.894V78.9756L187.725 65.7246Z" fill="url(#paint2_linear_3161_891)"/>
<path fill-rule="evenodd" clip-rule="evenodd" d="M178.279 153.259V119.902V86.6263L187.725 80.9546V65.6634L178.279 71.3351V71.2535L169.874 76.0989L161.469 80.9546V119.902V158.849L165.029 160.909L187.725 174.14V158.849L178.279 153.259Z" fill="url(#paint3_linear_3161_891)"/>
<path d="M0.632385 66.5407L13.8825 58.89L22.93 63.6436L51.8884 46.9243L74.8287 32.8878V16.8009L94.0153 6.50819V22.6053V32.3063V42.0074L60.2832 61.481L26.5613 80.9546L23.0014 78.894V78.9756L0.632385 66.5407Z" fill="url(#paint4_linear_3161_891)"/>
<path fill-rule="evenodd" clip-rule="evenodd" d="M9.75137 153.259V119.902V86.6263L0.632385 81.7706V66.5407L9.75137 71.3351V71.2535L18.1563 76.0989L26.5613 80.9546V119.902V158.849L23.0014 160.909L0.632385 174.915V159.624L9.75137 153.259Z" fill="url(#paint5_linear_3161_891)"/>
<path fill-rule="evenodd" clip-rule="evenodd" d="M60.2832 178.322L26.5613 158.849L0.632385 174.915L14.0253 182.556L23.0014 176.201L51.8884 192.879L76.8381 208.068V221.86L93.8419 231V217.106L94.0153 217.208V207.497V197.796L60.2832 178.322Z" fill="url(#paint6_linear_3161_891)"/>
<path fill-rule="evenodd" clip-rule="evenodd" d="M161.469 158.849L127.737 178.322L94.0153 197.796L93.8419 231L110.805 221.809V208.109L136.142 192.879L165.029 176.201L174.485 181.791L187.725 174.14L161.469 158.849Z" fill="url(#paint7_linear_3161_891)"/>
<g style="mix-blend-mode:multiply" opacity="0.23">
<path fill-rule="evenodd" clip-rule="evenodd" d="M0 87.3403L18.1156 96.9088C20.7069 98.2865 22.8744 100.344 24.3856 102.859C25.8968 105.375 26.6948 108.255 26.6939 111.19V118.086L8.76198 107.691C6.09652 106.141 3.88445 103.919 2.34687 101.247C0.809282 98.574 3.34814e-05 95.5446 0 92.4612L0 87.3403Z" fill="black"/>
</g>
<path fill-rule="evenodd" clip-rule="evenodd" d="M0 86.3203L18.1156 95.8887C20.7069 97.2664 22.8744 99.3235 24.3856 101.839C25.8968 104.355 26.6948 107.235 26.6939 110.17V117.066L8.76198 106.671C6.09652 105.121 3.88445 102.899 2.34687 100.227C0.809282 97.5539 3.34814e-05 94.5245 0 91.4411L0 86.3203Z" fill="url(#paint8_linear_3161_891)"/>
<path fill-rule="evenodd" clip-rule="evenodd" d="M3.23348 91.9104L16.9222 99.8875C18.9659 101.076 20.6616 102.78 21.8395 104.83C23.0174 106.88 23.6362 109.203 23.6339 111.568L9.5474 103.091C7.61445 101.926 6.0166 100.28 4.90994 98.3132C3.80327 96.3465 3.22564 94.1263 3.23348 91.8696V91.9104Z" fill="url(#paint9_radial_3161_891)"/>
<path fill-rule="evenodd" clip-rule="evenodd" d="M3.23348 91.9104L16.9222 99.8875C18.9659 101.076 20.6616 102.78 21.8395 104.83C23.0174 106.88 23.6362 109.203 23.6339 111.568L9.5474 103.091C7.61445 101.926 6.0166 100.28 4.90994 98.3132C3.80327 96.3465 3.22564 94.1263 3.23348 91.8696V91.9104Z" fill="url(#paint10_radial_3161_891)"/>
<path fill-rule="evenodd" clip-rule="evenodd" d="M6.89535 95.4399L15.6777 100.54C16.9869 101.303 18.0732 102.396 18.8285 103.71C19.5837 105.024 19.9815 106.512 19.9822 108.028L10.9448 102.601C9.70736 101.863 8.6815 100.818 7.96667 99.5667C7.25183 98.3157 6.87227 96.9012 6.86475 95.4603L6.89535 95.4399Z" fill="url(#paint11_linear_3161_891)"/>
<g style="mix-blend-mode:multiply" opacity="0.23">
<path fill-rule="evenodd" clip-rule="evenodd" d="M0 105.539L18.1156 115.138C20.7069 116.516 22.8744 118.573 24.3856 121.089C25.8968 123.604 26.6948 126.484 26.6939 129.419V136.315L8.76198 125.89C6.09652 124.34 3.88445 122.118 2.34687 119.445C0.809282 116.772 3.34814e-05 113.743 0 110.66L0 105.539Z" fill="black"/>
</g>
<path fill-rule="evenodd" clip-rule="evenodd" d="M0 104.519L18.1156 114.118C20.7069 115.495 22.8744 117.553 24.3856 120.068C25.8968 122.584 26.6948 125.464 26.6939 128.399V135.295L8.76198 124.87C6.09652 123.32 3.88445 121.098 2.34687 118.425C0.809282 115.752 3.34814e-05 112.723 0 109.64L0 104.519Z" fill="url(#paint12_linear_3161_891)"/>
<path fill-rule="evenodd" clip-rule="evenodd" d="M3.23344 110.17L16.9221 118.137C18.9658 119.325 20.6615 121.03 21.8394 123.08C23.0173 125.129 23.6361 127.453 23.6339 129.817L9.54737 121.289C7.61373 120.125 6.01533 118.479 4.90856 116.512C3.8018 114.546 3.2246 112.325 3.23344 110.068V110.17Z" fill="url(#paint13_radial_3161_891)"/>
<path fill-rule="evenodd" clip-rule="evenodd" d="M3.23344 110.17L16.9221 118.137C18.9658 119.325 20.6615 121.03 21.8394 123.08C23.0173 125.129 23.6361 127.453 23.6339 129.817L9.54737 121.289C7.61373 120.125 6.01533 118.479 4.90856 116.512C3.8018 114.546 3.2246 112.325 3.23344 110.068V110.17Z" fill="url(#paint14_radial_3161_891)"/>
<path fill-rule="evenodd" clip-rule="evenodd" d="M6.89535 113.638L15.6777 118.739C16.9869 119.502 18.0732 120.595 18.8285 121.908C19.5837 123.222 19.9815 124.711 19.9822 126.226L10.9448 120.799C9.70736 120.061 8.6815 119.016 7.96667 117.765C7.25183 116.514 6.87227 115.1 6.86475 113.659L6.89535 113.638Z" fill="url(#paint15_linear_3161_891)"/>
<g style="mix-blend-mode:multiply" opacity="0.23">
<path fill-rule="evenodd" clip-rule="evenodd" d="M0 123.737L18.1156 133.336C20.7069 134.714 22.8744 136.771 24.3856 139.287C25.8968 141.803 26.6948 144.683 26.6939 147.618V154.513L8.76198 144.088C6.09652 142.538 3.88445 140.316 2.34687 137.644C0.809282 134.971 3.34814e-05 131.942 0 128.858L0 123.737Z" fill="black"/>
</g>
<path fill-rule="evenodd" clip-rule="evenodd" d="M0 122.717L18.1156 132.316C20.7069 133.694 22.8744 135.751 24.3856 138.267C25.8968 140.783 26.6948 143.663 26.6939 146.598V153.493L8.76198 143.068C6.09652 141.518 3.88445 139.296 2.34687 136.623C0.809282 133.951 3.34814e-05 130.921 0 127.838L0 122.717Z" fill="url(#paint16_linear_3161_891)"/>
<path fill-rule="evenodd" clip-rule="evenodd" d="M3.23344 128.317L16.9221 136.284C18.9651 137.474 20.6603 139.178 21.8381 141.228C23.0159 143.277 23.6351 145.6 23.6339 147.964L9.54737 139.487C7.61373 138.324 6.01533 136.678 4.90856 134.711C3.8018 132.744 3.2246 130.523 3.23344 128.266V128.317Z" fill="url(#paint17_radial_3161_891)"/>
<path fill-rule="evenodd" clip-rule="evenodd" d="M3.23344 128.317L16.9221 136.284C18.9651 137.474 20.6603 139.178 21.8381 141.228C23.0159 143.277 23.6351 145.6 23.6339 147.964L9.54737 139.487C7.61373 138.324 6.01533 136.678 4.90856 134.711C3.8018 132.744 3.2246 130.523 3.23344 128.266V128.317Z" fill="url(#paint18_radial_3161_891)"/>
<path fill-rule="evenodd" clip-rule="evenodd" d="M6.89535 131.837L15.6777 136.937C16.9862 137.701 18.072 138.794 18.8271 140.108C19.5823 141.421 19.9805 142.91 19.9822 144.425L10.9448 138.998C9.70736 138.26 8.6815 137.215 7.96667 135.964C7.25183 134.713 6.87227 133.298 6.86475 131.857L6.89535 131.837Z" fill="url(#paint19_linear_3161_891)"/>
<g style="mix-blend-mode:multiply" opacity="0.23">
<path fill-rule="evenodd" clip-rule="evenodd" d="M188 87.3403L169.884 96.9088C167.292 98.2847 165.123 100.341 163.611 102.858C162.1 105.374 161.303 108.255 161.306 111.19V118.086L179.238 107.671C181.903 106.121 184.116 103.899 185.653 101.226C187.191 98.5536 188 95.5242 188 92.4408V87.3403Z" fill="black"/>
</g>
<path fill-rule="evenodd" clip-rule="evenodd" d="M188 86.3203L169.884 95.8887C167.292 97.2646 165.123 99.3213 163.611 101.838C162.1 104.354 161.303 107.235 161.306 110.17V117.066L179.238 106.651C181.903 105.101 184.116 102.879 185.653 100.206C187.191 97.5335 188 94.5041 188 91.4207V86.3203Z" fill="url(#paint20_linear_3161_891)"/>
<path fill-rule="evenodd" clip-rule="evenodd" d="M184.767 91.9104L171.068 99.8875C169.025 101.077 167.331 102.782 166.153 104.832C164.975 106.881 164.356 109.204 164.356 111.568L178.442 103.091C180.378 101.928 181.978 100.283 183.087 98.3157C184.196 96.3487 184.774 94.1275 184.767 91.8696V91.9104Z" fill="url(#paint21_radial_3161_891)"/>
<path fill-rule="evenodd" clip-rule="evenodd" d="M184.767 91.9104L171.068 99.8875C169.025 101.077 167.331 102.782 166.153 104.832C164.975 106.881 164.356 109.204 164.356 111.568L178.442 103.091C180.378 101.928 181.978 100.283 183.087 98.3157C184.196 96.3487 184.774 94.1275 184.767 91.8696V91.9104Z" fill="url(#paint22_radial_3161_891)"/>
<path fill-rule="evenodd" clip-rule="evenodd" d="M181.105 95.4399L172.322 100.54C171.013 101.303 169.927 102.396 169.172 103.71C168.416 105.024 168.019 106.512 168.018 108.028L177.055 102.601C178.291 101.861 179.316 100.816 180.031 99.5652C180.745 98.3145 181.126 96.9008 181.135 95.4603L181.105 95.4399Z" fill="url(#paint23_linear_3161_891)"/>
<g style="mix-blend-mode:multiply" opacity="0.23">
<path fill-rule="evenodd" clip-rule="evenodd" d="M188 105.539L169.884 115.138C167.292 116.514 165.123 118.57 163.611 121.087C162.1 123.603 161.303 126.484 161.306 129.419V136.315L179.238 125.9C181.903 124.35 184.116 122.128 185.653 119.455C187.191 116.783 188 113.753 188 110.67V105.539Z" fill="black"/>
</g>
<path fill-rule="evenodd" clip-rule="evenodd" d="M188 104.519L169.884 114.118C167.292 115.494 165.123 117.55 163.611 120.067C162.1 122.583 161.303 125.464 161.306 128.399V135.295L179.238 124.88C181.903 123.33 184.116 121.108 185.653 118.435C187.191 115.763 188 112.733 188 109.65V104.519Z" fill="url(#paint24_linear_3161_891)"/>
<path fill-rule="evenodd" clip-rule="evenodd" d="M184.767 110.17L171.068 118.137C169.025 119.327 167.331 121.032 166.153 123.081C164.975 125.131 164.356 127.453 164.356 129.817L178.442 121.34C180.379 120.178 181.98 118.533 183.088 116.566C184.197 114.599 184.775 112.377 184.767 110.119V110.17Z" fill="url(#paint25_radial_3161_891)"/>
<path fill-rule="evenodd" clip-rule="evenodd" d="M184.767 110.17L171.068 118.137C169.025 119.327 167.331 121.032 166.153 123.081C164.975 125.131 164.356 127.453 164.356 129.817L178.442 121.34C180.379 120.178 181.98 118.533 183.088 116.566C184.197 114.599 184.775 112.377 184.767 110.119V110.17Z" fill="url(#paint26_radial_3161_891)"/>
<path fill-rule="evenodd" clip-rule="evenodd" d="M181.105 113.638L172.322 118.739C171.013 119.502 169.927 120.595 169.172 121.908C168.416 123.222 168.019 124.711 168.018 126.226L177.055 120.799C178.291 120.06 179.316 119.014 180.031 117.764C180.745 116.513 181.126 115.099 181.135 113.659L181.105 113.638Z" fill="url(#paint27_linear_3161_891)"/>
<g style="mix-blend-mode:multiply" opacity="0.23">
<path fill-rule="evenodd" clip-rule="evenodd" d="M188 123.737L169.884 133.336C167.292 134.712 165.123 136.769 163.611 139.285C162.1 141.801 161.303 144.682 161.306 147.618V154.513L179.238 144.098C181.903 142.549 184.116 140.326 185.653 137.654C187.191 134.981 188 131.952 188 128.868V123.737Z" fill="black"/>
</g>
<path fill-rule="evenodd" clip-rule="evenodd" d="M188 122.717L169.884 132.316C167.292 133.692 165.123 135.749 163.611 138.265C162.1 140.781 161.303 143.662 161.306 146.598V153.493L179.238 143.078C181.903 141.528 184.116 139.306 185.653 136.634C187.191 133.961 188 130.932 188 127.848V122.717Z" fill="url(#paint28_linear_3161_891)"/>
<path fill-rule="evenodd" clip-rule="evenodd" d="M184.767 128.317L171.068 136.284C169.026 137.475 167.332 139.18 166.154 141.229C164.977 143.279 164.357 145.601 164.356 147.964L178.442 139.487C180.379 138.326 181.98 136.681 183.088 134.713C184.197 132.746 184.775 130.525 184.767 128.266V128.317Z" fill="url(#paint29_radial_3161_891)"/>
<path fill-rule="evenodd" clip-rule="evenodd" d="M184.767 128.317L171.068 136.284C169.026 137.475 167.332 139.18 166.154 141.229C164.977 143.279 164.357 145.601 164.356 147.964L178.442 139.487C180.379 138.326 181.98 136.681 183.088 134.713C184.197 132.746 184.775 130.525 184.767 128.266V128.317Z" fill="url(#paint30_radial_3161_891)"/>
<path fill-rule="evenodd" clip-rule="evenodd" d="M181.105 131.837L172.322 136.937C171.014 137.701 169.928 138.794 169.173 140.108C168.418 141.421 168.02 142.91 168.018 144.425L177.055 138.998C178.291 138.258 179.316 137.213 180.031 135.962C180.745 134.711 181.126 133.298 181.135 131.857L181.105 131.837Z" fill="url(#paint31_linear_3161_891)"/>
<path fill-rule="evenodd" clip-rule="evenodd" d="M6.1507 66.5407L13.5968 62.2053L23.6339 67.6322L74.9511 36.5499L23.6339 70.8352L13.5968 64.9595L6.1507 66.5407Z" fill="url(#paint32_linear_3161_891)"/>
<path fill-rule="evenodd" clip-rule="evenodd" d="M181.105 66.5407L173.659 62.2053L163.611 67.6322L112.304 36.5499L163.611 70.8352L173.659 64.9595L181.105 66.5407Z" fill="url(#paint33_linear_3161_891)"/>
<path fill-rule="evenodd" clip-rule="evenodd" d="M6.1507 174.436L13.5968 178.771L22.6648 172.691L74.9511 204.427L22.6648 169.488L13.5968 176.007L6.1507 174.436Z" fill="url(#paint34_linear_3161_891)"/>
<path fill-rule="evenodd" clip-rule="evenodd" d="M181.105 174.436L173.659 178.771L164.835 173.344L112.304 204.427L164.835 170.131L173.659 176.007L181.105 174.436Z" fill="url(#paint35_linear_3161_891)"/>
<path d="M80.5 14.1283L77.0626 14.0365L66.5156 21.8606L71.2281 35.6114H74.3391L69.8306 21.8606L80.5 14.1283Z" fill="url(#paint36_radial_3161_891)"/>
<g style="mix-blend-mode:multiply" opacity="0.23">
<path d="M94.0255 44.374V44.4454H73.0743L76.3689 54.2587H94.0255V54.1873H111.692L114.987 44.374H94.0255Z" fill="black"/>
</g>
<path d="M94.0255 43.3539V43.4253H73.0743L76.3689 53.2386H94.0255V53.1672H111.692L114.987 43.3539H94.0255Z" fill="url(#paint37_linear_3161_891)"/>
<path d="M107.194 14.1283L110.631 14.0365L121.168 21.8606L116.466 35.6114H113.355L117.863 21.8606L107.194 14.1283Z" fill="url(#paint38_radial_3161_891)"/>
<path d="M93.8419 10.7926L75.7773 23.911L82.6829 45.1391H105.001L111.896 23.911L93.8419 10.7926Z" fill="url(#paint39_radial_3161_891)"/>
<g style="mix-blend-mode:multiply" opacity="0.23">
<path d="M101.523 10.4457V5.20247L93.8419 1.02009L86.4977 5.23308V10.4866L69.3614 22.8603L78.6946 51.5861H108.938L118.322 22.8603L101.523 10.4457ZM104.991 46.149H102.951L101.931 43.1703H86.1713L85.1513 46.2306H82.6727L75.7773 24.9311L93.8419 11.8127L111.896 24.9311L104.991 46.149Z" fill="black"/>
</g>
<path d="M101.523 9.42566V4.18238L93.8419 0L86.4977 4.21298V9.46646L69.3614 21.8402L78.6946 50.566H108.938L118.322 21.8402L101.523 9.42566ZM104.991 45.1289H102.951L101.931 42.1502H86.1713L85.1513 45.2105H82.6727L75.7773 23.911L93.8419 10.7926L111.896 23.911L104.991 45.1289Z" fill="url(#paint40_linear_3161_891)"/>
<path d="M71.4525 26.1042L76.9198 29.5113L77.6338 31.5515L73.5537 29.2155C72.7067 28.7218 72.0658 27.9396 71.7483 27.0121L71.4525 26.1042Z" fill="url(#paint41_radial_3161_891)"/>
<path d="M72.6866 29.7765L78.154 33.1836L78.868 35.2238L74.7879 32.8878C73.9428 32.3966 73.3022 31.6183 72.9825 30.6946L72.6866 29.7765Z" fill="url(#paint42_radial_3161_891)"/>
<path d="M73.9209 33.4386L79.3882 36.8458L80.1022 38.8859L76.0221 36.5499C75.1752 36.0562 74.5343 35.2741 74.2167 34.3465L73.9209 33.4386Z" fill="url(#paint43_radial_3161_891)"/>
<path d="M75.1653 37.111L80.5817 40.5181L81.3059 42.5583L77.2258 40.2223C76.3938 39.7266 75.773 38.9424 75.4815 38.0189L75.1653 37.111Z" fill="url(#paint44_radial_3161_891)"/>
<path d="M116.221 26.1042L110.754 29.5113L110.04 31.5515L114.12 29.2155C114.967 28.7218 115.608 27.9396 115.925 27.0121L116.221 26.1042Z" fill="url(#paint45_radial_3161_891)"/>
<path d="M114.987 29.7765L109.52 33.1836L108.806 35.2238L112.886 32.8878C113.731 32.3966 114.371 31.6183 114.691 30.6946L114.987 29.7765Z" fill="url(#paint46_radial_3161_891)"/>
<path d="M113.742 33.4386L108.285 36.8458L107.571 38.8859L111.651 36.5499C112.499 36.0601 113.138 35.2761 113.447 34.3465L113.742 33.4386Z" fill="url(#paint47_radial_3161_891)"/>
<path d="M112.508 37.111L107.102 40.5181L106.378 42.5583L110.458 40.2223C111.29 39.7266 111.911 38.9424 112.202 38.0189L112.508 37.111Z" fill="url(#paint48_radial_3161_891)"/>
<path d="M76.1241 21.524L90.3228 10.7926L87.1913 11.2006L87.8034 11.9963L75.3081 21.524H76.1241Z" fill="url(#paint49_linear_3161_891)"/>
<path d="M111.039 21.524L96.8408 10.7926L99.9722 11.2006L99.3602 11.9963L111.855 21.524H111.039Z" fill="url(#paint50_linear_3161_891)"/>
<path d="M95.9023 43.2519L96.4531 44.3638L97.6772 44.5372L96.7898 45.4043L97.004 46.6284L95.9023 46.047L94.8109 46.6284L95.0149 45.4043L94.1275 44.5372L95.3515 44.3638L95.9023 43.2519Z" fill="url(#paint51_radial_3161_891)"/>
<path d="M91.7712 43.2519L92.3118 44.3638L93.5461 44.5372L92.6586 45.4043L92.8627 46.6284L91.7712 46.047L90.6696 46.6284L90.8838 45.4043L89.9964 44.5372L91.2204 44.3638L91.7712 43.2519Z" fill="url(#paint52_radial_3161_891)"/>
<g style="mix-blend-mode:multiply" opacity="0.23">
<path d="M85.8959 20.9731C86.781 20.7779 87.6828 20.6685 88.5888 20.6467C88.7504 20.6671 88.8976 20.7502 88.9987 20.878C89.0998 21.0058 89.1467 21.1681 89.1294 21.3301C89.1197 22.0944 89.0377 22.8561 88.8846 23.6049C87.8076 23.3137 86.6954 23.1729 85.5797 23.1867C85.5905 22.64 85.5495 22.0935 85.4573 21.5546C85.4424 21.42 85.4795 21.2848 85.5611 21.1766C85.6426 21.0685 85.7624 20.9957 85.8959 20.9731Z" fill="black"/>
<path d="M101.655 20.9731C100.764 20.7765 99.8549 20.6672 98.942 20.6467C98.7807 20.6695 98.634 20.7528 98.5317 20.8797C98.4295 21.0066 98.3792 21.1676 98.3912 21.3301C98.4094 22.0944 98.4948 22.8556 98.6462 23.6049C99.7198 23.3137 100.829 23.1729 101.941 23.1867C101.935 22.6402 101.976 22.0941 102.063 21.5546C102.084 21.4236 102.053 21.2897 101.977 21.1811C101.901 21.0726 101.786 20.998 101.655 20.9731Z" fill="black"/>
<path d="M106.449 33.0714C106.235 32.0513 105.929 30.9802 105.664 30.0111C105.113 28.0321 104.409 26.094 103.624 24.1762C103.379 23.5672 102.956 23.0464 102.41 22.6823C101.864 22.3182 101.22 22.1277 100.564 22.136H99.8192C99.0133 22.1358 98.2358 22.4337 97.6364 22.9725L97.0754 23.4825C96.3806 24.1067 95.4796 24.4518 94.5457 24.4516H93.0667C92.1301 24.4462 91.2288 24.0937 90.537 23.4621L89.976 22.9521C89.3766 22.4133 88.5991 22.1154 87.7932 22.1156H87.0486C86.3923 22.1073 85.7488 22.2978 85.2027 22.6619C84.6565 23.026 84.2333 23.5467 83.9885 24.1558C83.2439 26.0736 82.5401 28.0117 81.9485 29.9907C81.6833 30.9292 81.3772 31.9697 81.163 33.051C80.8826 34.221 80.8445 35.436 81.0508 36.6213C81.164 37.128 81.4043 37.5976 81.7489 37.9858C82.0936 38.3741 82.5314 38.6682 83.021 38.8406C83.5107 39.0131 84.0362 39.0581 84.5481 38.9714C85.0599 38.8847 85.5413 38.6693 85.9469 38.3453C87.1423 37.221 88.2537 36.0107 89.2722 34.724C89.6254 34.2944 90.0691 33.9482 90.5717 33.7101C91.0742 33.4721 91.6232 33.348 92.1793 33.3468H95.3719C95.928 33.348 96.477 33.4721 96.9795 33.7101C97.4821 33.9482 97.9258 34.2944 98.279 34.724C99.2975 36.0107 100.409 37.221 101.604 38.3453C102.01 38.6693 102.491 38.8847 103.003 38.9714C103.515 39.0581 104.04 39.0131 104.53 38.8406C105.02 38.6682 105.458 38.3741 105.802 37.9858C106.147 37.5976 106.387 37.128 106.5 36.6213C106.724 35.4468 106.707 34.239 106.449 33.0714Z" fill="black"/>
<path d="M106.449 32.3981C106.235 31.3781 105.929 30.307 105.664 29.3379C105.113 27.3589 104.409 25.4207 103.624 23.5029C103.379 22.8939 102.956 22.3731 102.41 22.009C101.864 21.6449 101.22 21.4545 100.564 21.4628H99.8192C99.0133 21.4625 98.2358 21.7605 97.6364 22.2992L97.0754 22.8093C96.3806 23.4334 95.4796 23.7786 94.5457 23.7784H93.0667C92.1328 23.7786 91.2318 23.4334 90.537 22.8093L89.976 22.2992C89.3827 21.7456 88.6045 21.4329 87.7932 21.4219H87.0486C86.3923 21.4137 85.7488 21.6041 85.2027 21.9682C84.6565 22.3323 84.2333 22.8531 83.9885 23.4621C83.2439 25.3799 82.5401 27.3181 81.9485 29.2971C81.6833 30.2355 81.3772 31.276 81.163 32.3573C80.8826 33.5274 80.8445 34.7424 81.0508 35.9277C81.146 36.4528 81.3768 36.9439 81.7204 37.3522C82.064 37.7606 82.5084 38.072 83.0095 38.2555C83.5105 38.4391 84.0509 38.4884 84.5769 38.3985C85.103 38.3087 85.5964 38.0829 86.0081 37.7434C87.2035 36.6192 88.3149 35.4088 89.3334 34.1221C89.6866 33.6926 90.1303 33.3464 90.6329 33.1083C91.1354 32.8702 91.6844 32.7462 92.2405 32.745H95.4331C95.9892 32.7462 96.5382 32.8702 97.0407 33.1083C97.5433 33.3464 97.987 33.6926 98.3402 34.1221C99.3587 35.4088 100.47 36.6192 101.665 37.7434C102.071 38.0674 102.552 38.2829 103.064 38.3695C103.576 38.4562 104.102 38.4112 104.591 38.2388C105.081 38.0664 105.519 37.7722 105.863 37.384C106.208 36.9957 106.448 36.5262 106.562 36.0195C106.775 34.8176 106.737 33.5845 106.449 32.3981Z" fill="black"/>
<path d="M106.562 34.6832C106.113 36.2439 103.389 37.0498 101.665 35.9685C100.497 35.1476 99.386 34.2478 98.3402 33.2754C97.5283 32.5917 96.4942 32.2289 95.4332 32.2553H92.2405C91.1794 32.2289 90.1454 32.5917 89.3334 33.2754C88.2877 34.2478 87.1767 35.1476 86.0082 35.9685C84.2741 37.0498 81.5609 36.2439 81.1121 34.6832C81.055 34.4867 81.0175 34.2851 80.9999 34.0813C80.9444 34.7192 80.9822 35.3618 81.1121 35.9889C81.2212 36.4981 81.4585 36.9711 81.8014 37.363C82.1444 37.755 82.5817 38.0529 83.072 38.2286C83.5622 38.4043 84.0892 38.4519 84.603 38.367C85.1168 38.2821 85.6005 38.0675 86.0082 37.7434C87.2036 36.6192 88.315 35.4088 89.3334 34.1221C89.6866 33.6926 90.1304 33.3464 90.6329 33.1083C91.1355 32.8702 91.6844 32.7462 92.2405 32.745H95.4332C95.9892 32.7462 96.5382 32.8702 97.0407 33.1083C97.5433 33.3464 97.987 33.6926 98.3402 34.1221C99.3587 35.4088 100.47 36.6192 101.665 37.7434C102.071 38.0674 102.553 38.2829 103.064 38.3695C103.576 38.4562 104.102 38.4112 104.591 38.2388C105.081 38.0664 105.519 37.7722 105.863 37.384C106.208 36.9957 106.448 36.5262 106.562 36.0195C106.691 35.3924 106.729 34.7498 106.674 34.1119C106.654 34.3054 106.617 34.4966 106.562 34.6832Z" fill="black"/>
<path d="M90.639 32.2145C91.8953 32.2145 92.9137 31.1961 92.9137 29.9397C92.9137 28.6834 91.8953 27.6649 90.639 27.6649C89.3828 27.6649 88.3644 28.6834 88.3644 29.9397C88.3644 31.1961 89.3828 32.2145 90.639 32.2145Z" fill="black"/>
<path d="M90.639 31.8983C91.7207 31.8983 92.5975 31.0214 92.5975 29.9397C92.5975 28.858 91.7207 27.9811 90.639 27.9811C89.5574 27.9811 88.6806 28.858 88.6806 29.9397C88.6806 31.0214 89.5574 31.8983 90.639 31.8983Z" fill="black"/>
<path d="M90.4248 30.5824C91.3262 30.5824 92.0568 29.8516 92.0568 28.9502C92.0568 28.0488 91.3262 27.3181 90.4248 27.3181C89.5235 27.3181 88.7928 28.0488 88.7928 28.9502C88.7928 29.8516 89.5235 30.5824 90.4248 30.5824Z" fill="black"/>
<path d="M91.8019 28.9502C91.8019 28.6835 91.7226 28.4227 91.5742 28.2011C91.4258 27.9794 91.2149 27.8069 90.9683 27.7053C90.7217 27.6037 90.4504 27.5776 90.189 27.6304C89.9275 27.6832 89.6876 27.8124 89.4998 28.0018C89.3119 28.1911 89.1844 28.432 89.1336 28.6938C89.0829 28.9557 89.111 29.2268 89.2145 29.4726C89.3179 29.7185 89.4921 29.9281 89.7148 30.0748C89.9376 30.2215 90.1989 30.2988 90.4656 30.2968C90.642 30.2968 90.8166 30.2619 90.9794 30.1941C91.1421 30.1263 91.2899 30.0269 91.4141 29.9018C91.5383 29.7766 91.6365 29.6281 91.7031 29.4648C91.7696 29.3014 91.8032 29.1266 91.8019 28.9502Z" fill="black"/>
<path d="M96.7184 32.2145C97.9746 32.2145 98.993 31.1961 98.993 29.9397C98.993 28.6834 97.9746 27.6649 96.7184 27.6649C95.4621 27.6649 94.4437 28.6834 94.4437 29.9397C94.4437 31.1961 95.4621 32.2145 96.7184 32.2145Z" fill="black"/>
<path d="M96.7184 31.8983C97.8 31.8983 98.6768 31.0214 98.6768 29.9397C98.6768 28.858 97.8 27.9811 96.7184 27.9811C95.6368 27.9811 94.7599 28.858 94.7599 29.9397C94.7599 31.0214 95.6368 31.8983 96.7184 31.8983Z" fill="black"/>
<path d="M97.0651 30.6844C97.9665 30.6844 98.6972 29.9536 98.6972 29.0522C98.6972 28.1508 97.9665 27.4201 97.0651 27.4201C96.1638 27.4201 95.4331 28.1508 95.4331 29.0522C95.4331 29.9536 96.1638 30.6844 97.0651 30.6844Z" fill="black"/>
<path d="M98.4116 29.0522C98.4136 28.7855 98.3363 28.5242 98.1896 28.3014C98.0429 28.0786 97.8333 27.9044 97.5875 27.801C97.3417 27.6975 97.0706 27.6694 96.8088 27.7202C96.5469 27.771 96.3061 27.8984 96.1167 28.0863C95.9274 28.2742 95.7982 28.5141 95.7454 28.7756C95.6926 29.037 95.7187 29.3083 95.8203 29.5549C95.9219 29.8016 96.0944 30.0125 96.3161 30.1609C96.5377 30.3093 96.7984 30.3886 97.0651 30.3886C97.4205 30.3886 97.7614 30.2481 98.0136 29.9978C98.2658 29.7475 98.4089 29.4076 98.4116 29.0522Z" fill="black"/>
<path d="M101.298 24.6046C101.33 24.7941 101.302 24.9887 101.219 25.162C101.136 25.3353 101.003 25.4791 100.836 25.5739C100.668 25.6687 100.476 25.7099 100.285 25.6921C100.094 25.6742 99.9128 25.5981 99.7662 25.4741C99.6196 25.35 99.5146 25.1839 99.4653 24.9983C99.4161 24.8127 99.425 24.6164 99.4908 24.436C99.5566 24.2555 99.6762 24.0996 99.8335 23.9893C99.9907 23.879 100.178 23.8196 100.37 23.8192C100.597 23.8022 100.821 23.875 100.995 24.0219C101.169 24.1688 101.277 24.3781 101.298 24.6046Z" fill="black"/>
<path d="M100.37 25.2269C100.776 25.2269 101.104 24.9483 101.104 24.6046C101.104 24.261 100.776 23.9824 100.37 23.9824C99.9644 23.9824 99.6356 24.261 99.6356 24.6046C99.6356 24.9483 99.9644 25.2269 100.37 25.2269Z" fill="black"/>
<path d="M101.298 27.5425C101.327 27.732 101.298 27.9258 101.214 28.098C101.129 28.2701 100.994 28.4124 100.827 28.5055C100.659 28.5987 100.467 28.6383 100.277 28.6191C100.086 28.5998 99.9056 28.5226 99.7601 28.3979C99.6145 28.2731 99.5107 28.1068 99.4625 27.9212C99.4143 27.7357 99.4241 27.5399 99.4905 27.3601C99.557 27.1802 99.6769 27.0251 99.8341 26.9155C99.9913 26.8058 100.178 26.747 100.37 26.7468C100.599 26.7299 100.824 26.8041 100.998 26.9532C101.172 27.1023 101.28 27.3141 101.298 27.5425Z" fill="black"/>
<path d="M100.37 28.2056C100.776 28.2056 101.104 27.927 101.104 27.5833C101.104 27.2396 100.776 26.9611 100.37 26.9611C99.9644 26.9611 99.6356 27.2396 99.6356 27.5833C99.6356 27.927 99.9644 28.2056 100.37 28.2056Z" fill="black"/>
<path d="M102.859 26.0736C102.89 26.2631 102.863 26.4576 102.78 26.6309C102.697 26.8043 102.563 26.948 102.396 27.0428C102.229 27.1376 102.037 27.1789 101.846 27.161C101.655 27.1432 101.473 27.0671 101.327 26.943C101.18 26.8189 101.075 26.6529 101.026 26.4672C100.977 26.2816 100.986 26.0853 101.051 25.9049C101.117 25.7245 101.237 25.5686 101.394 25.4583C101.551 25.348 101.739 25.2886 101.931 25.2881C102.158 25.2711 102.382 25.3439 102.556 25.4908C102.729 25.6378 102.838 25.8471 102.859 26.0736Z" fill="black"/>
<path d="M102.675 26.0736C102.657 26.2541 102.569 26.4203 102.43 26.5366C102.291 26.6529 102.111 26.7101 101.931 26.6958C101.84 26.7124 101.746 26.7087 101.656 26.6851C101.567 26.6615 101.483 26.6185 101.412 26.5591C101.341 26.4998 101.284 26.4255 101.245 26.3416C101.205 26.2577 101.185 26.1662 101.185 26.0736C101.185 25.9809 101.205 25.8894 101.245 25.8055C101.284 25.7216 101.341 25.6474 101.412 25.588C101.483 25.5286 101.567 25.4856 101.656 25.462C101.746 25.4384 101.84 25.4347 101.931 25.4513C102.111 25.4371 102.291 25.4942 102.43 25.6105C102.569 25.7269 102.657 25.8931 102.675 26.0736Z" fill="black"/>
<path d="M99.9621 26.0736C99.9934 26.2631 99.9658 26.4576 99.883 26.6309C99.8003 26.8043 99.6664 26.948 99.4993 27.0428C99.3323 27.1376 99.1402 27.1789 98.949 27.161C98.7578 27.1432 98.5766 27.0671 98.43 26.943C98.2834 26.8189 98.1784 26.6529 98.1292 26.4672C98.0799 26.2816 98.0888 26.0853 98.1546 25.9049C98.2205 25.7245 98.3401 25.5686 98.4973 25.4583C98.6545 25.348 98.8418 25.2886 99.0338 25.2881C99.2607 25.2711 99.4851 25.3439 99.6587 25.4908C99.8323 25.6378 99.9413 25.8471 99.9621 26.0736Z" fill="black"/>
<path d="M99.7274 26.0736C99.7525 26.224 99.7308 26.3785 99.6652 26.5162C99.5996 26.6539 99.4933 26.7682 99.3607 26.8435C99.2281 26.9188 99.0755 26.9516 98.9237 26.9374C98.7718 26.9232 98.628 26.8627 98.5116 26.7642C98.3953 26.6656 98.312 26.5336 98.273 26.3861C98.2341 26.2387 98.2414 26.0828 98.2939 25.9396C98.3464 25.7964 98.4416 25.6728 98.5666 25.5854C98.6917 25.4981 98.8405 25.4513 98.993 25.4513C99.1728 25.4372 99.3508 25.4947 99.4884 25.6112C99.6259 25.7278 99.7119 25.8939 99.7274 26.0736Z" fill="black"/>
<path d="M86.9465 27.6853C88.1296 27.6853 89.0886 26.7262 89.0886 25.5431C89.0886 24.36 88.1296 23.4009 86.9465 23.4009C85.7635 23.4009 84.8045 24.36 84.8045 25.5431C84.8045 26.7262 85.7635 27.6853 86.9465 27.6853Z" fill="black"/>
<path d="M86.9466 27.4711C88.0113 27.4711 88.8744 26.6079 88.8744 25.5431C88.8744 24.4783 88.0113 23.6151 86.9466 23.6151C85.8819 23.6151 85.0187 24.4783 85.0187 25.5431C85.0187 26.6079 85.8819 27.4711 86.9466 27.4711Z" fill="black"/>
<path d="M88.0686 25.1147H87.5382C87.4949 25.1147 87.4534 25.0975 87.4228 25.0669C87.3922 25.0363 87.375 24.9948 87.375 24.9515V24.421C87.375 24.3777 87.3578 24.3362 87.3272 24.3056C87.2966 24.275 87.2551 24.2578 87.2118 24.2578H86.7018C86.6585 24.2578 86.617 24.275 86.5864 24.3056C86.5558 24.3362 86.5386 24.3777 86.5386 24.421V24.9515C86.5386 24.9948 86.5214 25.0363 86.4908 25.0669C86.4602 25.0975 86.4187 25.1147 86.3754 25.1147H85.845C85.8017 25.1147 85.7602 25.1319 85.7296 25.1625C85.699 25.1931 85.6818 25.2346 85.6818 25.2779V25.7981C85.6818 25.8414 85.699 25.8829 85.7296 25.9136C85.7602 25.9442 85.8017 25.9614 85.845 25.9614H86.3754C86.4179 25.9638 86.458 25.9818 86.4881 26.0119C86.5182 26.042 86.5361 26.0821 86.5386 26.1246V26.655C86.5386 26.6983 86.5558 26.7398 86.5864 26.7704C86.617 26.801 86.6585 26.8182 86.7018 26.8182H87.222C87.2653 26.8182 87.3068 26.801 87.3374 26.7704C87.368 26.7398 87.3852 26.6983 87.3852 26.655V26.1246C87.3852 26.0813 87.4024 26.0398 87.433 26.0092C87.4636 25.9786 87.5051 25.9614 87.5484 25.9614H88.0788C88.1221 25.9614 88.1636 25.9442 88.1942 25.9136C88.2248 25.8829 88.242 25.8414 88.242 25.7981V25.2779C88.2421 25.2556 88.2375 25.2335 88.2287 25.213C88.2199 25.1925 88.2069 25.174 88.1907 25.1587C88.1744 25.1434 88.1552 25.1316 88.1342 25.1241C88.1132 25.1165 88.0909 25.1133 88.0686 25.1147Z" fill="black"/>
<path d="M93.2095 25.5125H91.2408C91.1563 25.5125 91.0878 25.581 91.0878 25.6655V26.2164C91.0878 26.3009 91.1563 26.3694 91.2408 26.3694H93.2095C93.294 26.3694 93.3625 26.3009 93.3625 26.2164V25.6655C93.3625 25.581 93.294 25.5125 93.2095 25.5125Z" fill="black"/>
<path d="M96.137 25.5125H94.1683C94.0838 25.5125 94.0153 25.581 94.0153 25.6655V26.2164C94.0153 26.3009 94.0838 26.3694 94.1683 26.3694H96.137C96.2215 26.3694 96.29 26.3009 96.29 26.2164V25.6655C96.29 25.581 96.2215 25.5125 96.137 25.5125Z" fill="black"/>
</g>
<path d="M85.8959 19.953C86.781 19.7578 87.6828 19.6484 88.5888 19.6266C88.7504 19.647 88.8976 19.7301 88.9987 19.8579C89.0998 19.9857 89.1467 20.148 89.1294 20.31C89.1197 21.0743 89.0377 21.836 88.8846 22.5849C87.8076 22.2936 86.6954 22.1528 85.5797 22.1666C85.5905 21.6199 85.5495 21.0734 85.4573 20.5345C85.4424 20.3999 85.4795 20.2647 85.5611 20.1566C85.6426 20.0485 85.7624 19.9756 85.8959 19.953Z" fill="url(#paint53_linear_3161_891)"/>
<path d="M101.655 19.953C100.764 19.7565 99.8549 19.6471 98.942 19.6266C98.7807 19.6494 98.634 19.7327 98.5317 19.8596C98.4295 19.9865 98.3792 20.1475 98.3912 20.31C98.4094 21.0743 98.4948 21.8355 98.6462 22.5849C99.7198 22.2936 100.829 22.1528 101.941 22.1666C101.935 21.6201 101.976 21.074 102.063 20.5345C102.084 20.4035 102.053 20.2696 101.977 20.161C101.901 20.0525 101.786 19.9779 101.655 19.953Z" fill="url(#paint54_linear_3161_891)"/>
<path d="M106.449 32.0513C106.235 31.0312 105.929 29.9601 105.664 28.991C105.113 27.0121 104.409 25.0739 103.624 23.1561C103.379 22.5471 102.956 22.0263 102.41 21.6622C101.864 21.2981 101.22 21.1077 100.564 21.1159H99.8192C99.0133 21.1157 98.2358 21.4136 97.6364 21.9524L97.0754 22.4624C96.3806 23.0866 95.4796 23.4317 94.5457 23.4315H93.0667C92.1301 23.4261 91.2288 23.0736 90.537 22.442L89.976 21.932C89.3766 21.3932 88.5991 21.0953 87.7932 21.0955H87.0486C86.3923 21.0873 85.7488 21.2777 85.2027 21.6418C84.6565 22.0059 84.2333 22.5267 83.9885 23.1357C83.2439 25.0535 82.5401 26.9917 81.9485 28.9706C81.6833 29.9091 81.3772 30.9496 81.163 32.0309C80.8826 33.2009 80.8445 34.4159 81.0508 35.6012C81.164 36.1079 81.4043 36.5775 81.7489 36.9657C82.0936 37.354 82.5314 37.6481 83.021 37.8206C83.5107 37.993 84.0362 38.038 84.5481 37.9513C85.0599 37.8647 85.5413 37.6492 85.9469 37.3252C87.1423 36.2009 88.2537 34.9906 89.2722 33.7039C89.6254 33.2743 90.0691 32.9281 90.5717 32.6901C91.0742 32.452 91.6232 32.3279 92.1793 32.3267H95.3719C95.928 32.3279 96.477 32.452 96.9795 32.6901C97.4821 32.9281 97.9258 33.2743 98.279 33.7039C99.2975 34.9906 100.409 36.2009 101.604 37.3252C102.01 37.6492 102.491 37.8647 103.003 37.9513C103.515 38.038 104.04 37.993 104.53 37.8206C105.02 37.6481 105.458 37.354 105.802 36.9657C106.147 36.5775 106.387 36.1079 106.5 35.6012C106.724 34.4267 106.707 33.2189 106.449 32.0513Z" fill="#D8B79D"/>
<path d="M106.449 31.3781C106.235 30.358 105.929 29.2869 105.664 28.3178C105.113 26.3388 104.409 24.4006 103.624 22.4828C103.379 21.8738 102.956 21.353 102.41 20.9889C101.864 20.6248 101.22 20.4344 100.564 20.4427H99.8192C99.0133 20.4424 98.2358 20.7404 97.6364 21.2791L97.0754 21.7892C96.3806 22.4133 95.4796 22.7585 94.5457 22.7583H93.0667C92.1328 22.7585 91.2318 22.4133 90.537 21.7892L89.976 21.2791C89.3827 20.7255 88.6045 20.4128 87.7932 20.4019H87.0486C86.3923 20.3936 85.7488 20.584 85.2027 20.9481C84.6565 21.3122 84.2333 21.833 83.9885 22.442C83.2439 24.3598 82.5401 26.298 81.9485 28.277C81.6833 29.2155 81.3772 30.2559 81.163 31.3372C80.8826 32.5073 80.8445 33.7223 81.0508 34.9076C81.146 35.4327 81.3768 35.9238 81.7204 36.3321C82.064 36.7405 82.5084 37.0519 83.0095 37.2354C83.5105 37.419 84.0509 37.4683 84.5769 37.3784C85.103 37.2886 85.5964 37.0628 86.0081 36.7233C87.2035 35.5991 88.3149 34.3887 89.3334 33.102C89.6866 32.6725 90.1303 32.3263 90.6329 32.0882C91.1354 31.8501 91.6844 31.7261 92.2405 31.7249H95.4331C95.9892 31.7261 96.5382 31.8501 97.0407 32.0882C97.5433 32.3263 97.987 32.6725 98.3402 33.102C99.3587 34.3887 100.47 35.5991 101.665 36.7233C102.071 37.0473 102.552 37.2628 103.064 37.3495C103.576 37.4361 104.102 37.3911 104.591 37.2187C105.081 37.0463 105.519 36.7521 105.863 36.3639C106.208 35.9756 106.448 35.5061 106.562 34.9994C106.775 33.7975 106.737 32.5644 106.449 31.3781Z" fill="url(#paint55_linear_3161_891)"/>
<path d="M106.562 33.6631C106.113 35.2238 103.389 36.0297 101.665 34.9484C100.497 34.1275 99.386 33.2277 98.3402 32.2553C97.5283 31.5716 96.4942 31.2088 95.4332 31.2352H92.2405C91.1794 31.2088 90.1454 31.5716 89.3334 32.2553C88.2877 33.2277 87.1767 34.1275 86.0082 34.9484C84.2741 36.0297 81.5609 35.2238 81.1121 33.6631C81.055 33.4666 81.0175 33.265 80.9999 33.0612C80.9444 33.6991 80.9822 34.3417 81.1121 34.9688C81.2212 35.478 81.4585 35.951 81.8014 36.3429C82.1444 36.7349 82.5817 37.0328 83.072 37.2085C83.5622 37.3842 84.0892 37.4318 84.603 37.3469C85.1168 37.262 85.6005 37.0474 86.0082 36.7233C87.2036 35.5991 88.315 34.3887 89.3334 33.102C89.6866 32.6725 90.1304 32.3263 90.6329 32.0882C91.1355 31.8501 91.6844 31.7261 92.2405 31.7249H95.4332C95.9892 31.7261 96.5382 31.8501 97.0407 32.0882C97.5433 32.3263 97.987 32.6725 98.3402 33.102C99.3587 34.3887 100.47 35.5991 101.665 36.7233C102.071 37.0473 102.553 37.2628 103.064 37.3495C103.576 37.4361 104.102 37.3911 104.591 37.2187C105.081 37.0463 105.519 36.7521 105.863 36.3639C106.208 35.9756 106.448 35.5061 106.562 34.9994C106.691 34.3724 106.729 33.7297 106.674 33.0918C106.654 33.2853 106.617 33.4766 106.562 33.6631Z" fill="#E7C6B5"/>
<path d="M90.639 31.1944C91.8953 31.1944 92.9137 30.176 92.9137 28.9196C92.9137 27.6633 91.8953 26.6448 90.639 26.6448C89.3828 26.6448 88.3644 27.6633 88.3644 28.9196C88.3644 30.176 89.3828 31.1944 90.639 31.1944Z" fill="#D8B79D"/>
<path d="M90.639 30.8782C91.7207 30.8782 92.5975 30.0013 92.5975 28.9196C92.5975 27.8379 91.7207 26.9611 90.639 26.9611C89.5574 26.9611 88.6806 27.8379 88.6806 28.9196C88.6806 30.0013 89.5574 30.8782 90.639 30.8782Z" fill="#E7C6B5"/>
<path d="M90.4248 29.5623C91.3262 29.5623 92.0568 28.8316 92.0568 27.9301C92.0568 27.0287 91.3262 26.298 90.4248 26.298C89.5235 26.298 88.7928 27.0287 88.7928 27.9301C88.7928 28.8316 89.5235 29.5623 90.4248 29.5623Z" fill="url(#paint56_linear_3161_891)"/>
<path d="M91.8019 27.9301C91.8019 27.6634 91.7226 27.4027 91.5742 27.181C91.4258 26.9594 91.2149 26.7868 90.9683 26.6852C90.7217 26.5836 90.4504 26.5575 90.189 26.6103C89.9275 26.6631 89.6876 26.7923 89.4998 26.9817C89.3119 27.171 89.1844 27.4119 89.1336 27.6738C89.0829 27.9356 89.111 28.2067 89.2145 28.4525C89.3179 28.6984 89.4921 28.908 89.7148 29.0547C89.9376 29.2014 90.1989 29.2787 90.4656 29.2767C90.642 29.2767 90.8166 29.2418 90.9794 29.174C91.1421 29.1062 91.2899 29.0068 91.4141 28.8817C91.5383 28.7565 91.6365 28.608 91.7031 28.4447C91.7696 28.2814 91.8032 28.1065 91.8019 27.9301Z" fill="url(#paint57_linear_3161_891)"/>
<path d="M96.7184 31.1944C97.9746 31.1944 98.993 30.176 98.993 28.9196C98.993 27.6633 97.9746 26.6448 96.7184 26.6448C95.4621 26.6448 94.4437 27.6633 94.4437 28.9196C94.4437 30.176 95.4621 31.1944 96.7184 31.1944Z" fill="#D8B79D"/>
<path d="M96.7183 30.8782C97.7999 30.8782 98.6768 30.0013 98.6768 28.9196C98.6768 27.8379 97.7999 26.9611 96.7183 26.9611C95.6367 26.9611 94.7599 27.8379 94.7599 28.9196C94.7599 30.0013 95.6367 30.8782 96.7183 30.8782Z" fill="#E7C6B5"/>
<path d="M97.0651 29.6643C97.9665 29.6643 98.6972 28.9336 98.6972 28.0321C98.6972 27.1307 97.9665 26.4 97.0651 26.4C96.1638 26.4 95.4331 27.1307 95.4331 28.0321C95.4331 28.9336 96.1638 29.6643 97.0651 29.6643Z" fill="url(#paint58_linear_3161_891)"/>
<path d="M98.4116 28.0321C98.4136 27.7654 98.3363 27.5041 98.1896 27.2813C98.0429 27.0585 97.8333 26.8844 97.5875 26.7809C97.3417 26.6774 97.0706 26.6493 96.8088 26.7001C96.5469 26.7509 96.3061 26.8783 96.1167 27.0662C95.9274 27.2541 95.7982 27.494 95.7454 27.7555C95.6926 28.017 95.7187 28.2882 95.8203 28.5349C95.9219 28.7815 96.0944 28.9924 96.3161 29.1408C96.5377 29.2892 96.7984 29.3685 97.0651 29.3685C97.4205 29.3685 97.7614 29.228 98.0136 28.9777C98.2658 28.7274 98.4089 28.3875 98.4116 28.0321Z" fill="url(#paint59_linear_3161_891)"/>
<path d="M101.298 23.5845C101.33 23.774 101.302 23.9686 101.219 24.1419C101.136 24.3152 101.003 24.459 100.836 24.5538C100.668 24.6486 100.476 24.6898 100.285 24.672C100.094 24.6541 99.9128 24.578 99.7662 24.454C99.6196 24.3299 99.5146 24.1639 99.4653 23.9782C99.4161 23.7926 99.425 23.5963 99.4908 23.4159C99.5566 23.2354 99.6762 23.0796 99.8335 22.9693C99.9907 22.859 100.178 22.7996 100.37 22.7991C100.597 22.7821 100.821 22.8549 100.995 23.0018C101.169 23.1487 101.277 23.358 101.298 23.5845Z" fill="#D8B79D"/>
<path d="M100.37 24.2068C100.776 24.2068 101.104 23.9282 101.104 23.5845C101.104 23.2409 100.776 22.9623 100.37 22.9623C99.9644 22.9623 99.6356 23.2409 99.6356 23.5845C99.6356 23.9282 99.9644 24.2068 100.37 24.2068Z" fill="url(#paint60_linear_3161_891)"/>
<path d="M101.298 26.5224C101.327 26.7119 101.298 26.9057 101.214 27.0779C101.129 27.2501 100.994 27.3923 100.827 27.4854C100.659 27.5786 100.467 27.6182 100.277 27.599C100.086 27.5797 99.9056 27.5025 99.76 27.3778C99.6145 27.253 99.5106 27.0867 99.4625 26.9012C99.4143 26.7156 99.424 26.5198 99.4905 26.34C99.5569 26.1601 99.6768 26.005 99.834 25.8954C99.9913 25.7857 100.178 25.7269 100.37 25.7267C100.598 25.7098 100.824 25.784 100.998 25.9331C101.172 26.0822 101.28 26.2941 101.298 26.5224Z" fill="#D8B79D"/>
<path d="M100.37 27.1855C100.776 27.1855 101.104 26.9069 101.104 26.5632C101.104 26.2196 100.776 25.941 100.37 25.941C99.9644 25.941 99.6356 26.2196 99.6356 26.5632C99.6356 26.9069 99.9644 27.1855 100.37 27.1855Z" fill="url(#paint61_linear_3161_891)"/>
<path d="M102.859 25.0535C102.89 25.243 102.863 25.4375 102.78 25.6108C102.697 25.7842 102.563 25.9279 102.396 26.0227C102.229 26.1175 102.037 26.1588 101.846 26.1409C101.655 26.1231 101.473 26.047 101.327 25.9229C101.18 25.7989 101.075 25.6328 101.026 25.4472C100.977 25.2615 100.986 25.0652 101.051 24.8848C101.117 24.7044 101.237 24.5485 101.394 24.4382C101.551 24.3279 101.739 24.2685 101.931 24.268C102.158 24.251 102.382 24.3238 102.556 24.4707C102.729 24.6177 102.838 24.827 102.859 25.0535Z" fill="#D8B79D"/>
<path d="M102.675 25.0535C102.657 25.234 102.569 25.4002 102.43 25.5165C102.291 25.6328 102.111 25.69 101.931 25.6757C101.84 25.6923 101.746 25.6887 101.656 25.665C101.567 25.6414 101.483 25.5984 101.412 25.539C101.341 25.4797 101.284 25.4054 101.245 25.3215C101.205 25.2376 101.185 25.1461 101.185 25.0535C101.185 24.9608 101.205 24.8693 101.245 24.7854C101.284 24.7015 101.341 24.6273 101.412 24.5679C101.483 24.5086 101.567 24.4655 101.656 24.4419C101.746 24.4183 101.84 24.4147 101.931 24.4312C102.111 24.417 102.291 24.4741 102.43 24.5905C102.569 24.7068 102.657 24.873 102.675 25.0535Z" fill="url(#paint62_linear_3161_891)"/>
<path d="M99.962 25.0535C99.9933 25.243 99.9657 25.4375 99.883 25.6108C99.8002 25.7842 99.6663 25.9279 99.4993 26.0227C99.3322 26.1175 99.1402 26.1588 98.9489 26.1409C98.7577 26.1231 98.5766 26.047 98.43 25.9229C98.2834 25.7989 98.1783 25.6328 98.1291 25.4472C98.0798 25.2615 98.0887 25.0652 98.1546 24.8848C98.2204 24.7044 98.34 24.5485 98.4972 24.4382C98.6545 24.3279 98.8417 24.2685 99.0338 24.268C99.2606 24.251 99.485 24.3238 99.6587 24.4707C99.8323 24.6177 99.9412 24.827 99.962 25.0535Z" fill="#D8B79D"/>
<path d="M99.7274 25.0535C99.7525 25.2039 99.7307 25.3584 99.6651 25.4961C99.5995 25.6338 99.4933 25.7481 99.3606 25.8234C99.228 25.8987 99.0755 25.9315 98.9236 25.9173C98.7718 25.9031 98.6279 25.8427 98.5116 25.7441C98.3952 25.6455 98.3119 25.5135 98.273 25.366C98.234 25.2186 98.2413 25.0627 98.2938 24.9195C98.3463 24.7763 98.4415 24.6527 98.5666 24.5654C98.6916 24.478 98.8405 24.4312 98.993 24.4312C99.1727 24.4171 99.3507 24.4746 99.4883 24.5911C99.6259 24.7077 99.7118 24.8739 99.7274 25.0535Z" fill="url(#paint63_linear_3161_891)"/>
<path d="M86.9465 26.6652C88.1296 26.6652 89.0886 25.7061 89.0886 24.523C89.0886 23.3399 88.1296 22.3808 86.9465 22.3808C85.7635 22.3808 84.8045 23.3399 84.8045 24.523C84.8045 25.7061 85.7635 26.6652 86.9465 26.6652Z" fill="#D8B79D"/>
<path d="M86.9466 26.451C88.0113 26.451 88.8744 25.5878 88.8744 24.523C88.8744 23.4582 88.0113 22.5951 86.9466 22.5951C85.8819 22.5951 85.0187 23.4582 85.0187 24.523C85.0187 25.5878 85.8819 26.451 86.9466 26.451Z" fill="url(#paint64_linear_3161_891)"/>
<path d="M88.0686 24.0946H87.5382C87.4949 24.0946 87.4534 24.0774 87.4228 24.0468C87.3922 24.0162 87.375 23.9747 87.375 23.9314V23.4009C87.375 23.3576 87.3578 23.3161 87.3272 23.2855C87.2966 23.2549 87.2551 23.2377 87.2118 23.2377H86.7018C86.6585 23.2377 86.617 23.2549 86.5864 23.2855C86.5558 23.3161 86.5386 23.3576 86.5386 23.4009V23.9314C86.5386 23.9747 86.5214 24.0162 86.4908 24.0468C86.4602 24.0774 86.4187 24.0946 86.3754 24.0946H85.845C85.8017 24.0946 85.7602 24.1118 85.7296 24.1424C85.699 24.173 85.6818 24.2145 85.6818 24.2578V24.7781C85.6818 24.8213 85.699 24.8629 85.7296 24.8935C85.7602 24.9241 85.8017 24.9413 85.845 24.9413H86.3754C86.4179 24.9437 86.458 24.9617 86.4881 24.9918C86.5182 25.0219 86.5361 25.062 86.5386 25.1045V25.6349C86.5386 25.6782 86.5558 25.7197 86.5864 25.7503C86.617 25.7809 86.6585 25.7981 86.7018 25.7981H87.222C87.2653 25.7981 87.3068 25.7809 87.3374 25.7503C87.368 25.7197 87.3852 25.6782 87.3852 25.6349V25.1045C87.3852 25.0612 87.4024 25.0197 87.433 24.9891C87.4636 24.9585 87.5051 24.9413 87.5484 24.9413H88.0788C88.1221 24.9413 88.1636 24.9241 88.1942 24.8935C88.2248 24.8629 88.242 24.8213 88.242 24.7781V24.2578C88.2421 24.2355 88.2375 24.2134 88.2287 24.1929C88.2199 24.1724 88.2069 24.1539 88.1907 24.1386C88.1744 24.1233 88.1552 24.1115 88.1342 24.104C88.1132 24.0964 88.0909 24.0932 88.0686 24.0946Z" fill="#E7C6B5"/>
<path d="M93.2095 24.4924H91.2408C91.1563 24.4924 91.0878 24.5609 91.0878 24.6454V25.1963C91.0878 25.2808 91.1563 25.3493 91.2408 25.3493H93.2095C93.294 25.3493 93.3625 25.2808 93.3625 25.1963V24.6454C93.3625 24.5609 93.294 24.4924 93.2095 24.4924Z" fill="url(#paint65_linear_3161_891)"/>
<path d="M96.137 24.4924H94.1683C94.0838 24.4924 94.0153 24.5609 94.0153 24.6454V25.1963C94.0153 25.2808 94.0838 25.3493 94.1683 25.3493H96.137C96.2215 25.3493 96.29 25.2808 96.29 25.1963V24.6454C96.29 24.5609 96.2215 24.4924 96.137 24.4924Z" fill="url(#paint66_linear_3161_891)"/>
<path d="M93.8419 3.45812L94.8721 5.24328L93.8419 2.52983V3.45812Z" fill="#EB6F25"/>
<path d="M96.698 7.49768L93.8419 2.52983L94.8721 5.24328L96.698 7.49768Z" fill="#F2682D"/>
<path d="M94.8721 5.24328L95.9023 7.02844L96.698 7.49768L94.8721 5.24328Z" fill="#EF682A"/>
<path d="M93.8419 7.02844L96.698 7.49768L95.9024 7.02844H93.8419Z" fill="#F2682D"/>
<path d="M91.7713 7.02844L90.9756 7.49768L93.8419 7.02844H91.7713Z" fill="#F2682D"/>
<path d="M90.9756 7.49768H96.698L93.8419 7.02844L90.9756 7.49768Z" fill="#EF682A"/>
<path d="M94.8721 5.24328L93.8419 3.45811V4.3864L94.8721 5.24328Z" fill="#F78013"/>
<path d="M95.0965 6.5694L95.9023 7.02844L94.8721 5.24328L95.0965 6.5694Z" fill="#F2682D"/>
<path d="M95.0965 6.5694H92.5771L93.8419 7.02844L95.0965 6.5694Z" fill="#F2682D"/>
<path d="M92.5771 6.5694L91.7712 7.02844H93.8419L92.5771 6.5694Z" fill="#F45F2F"/>
<path d="M93.8419 4.3864L95.0965 6.5694L94.8721 5.24328L93.8419 4.3864Z" fill="#F45F2F"/>
<path d="M95.0965 6.5694L93.8419 7.02844H95.9024L95.0965 6.5694Z" fill="#EF682A"/>
<path d="M93.8419 4.3864L92.8219 6.12056C93.4216 6.07703 93.9941 5.85299 94.4641 5.4779L93.8419 4.3864Z" fill="#F78013"/>
<path d="M94.4743 5.4881C94.0003 5.86144 93.4241 6.08199 92.8219 6.12056L92.5669 6.5592H95.0863L94.4743 5.4881Z" fill="#F17720"/>
<path d="M93.8419 3.45812V2.52983L92.8015 5.24328L93.8419 3.45812Z" fill="#F78013"/>
<path d="M92.8015 5.24328L93.8419 2.52983L90.9756 7.49768L92.8015 5.24328Z" fill="#EB6F25"/>
<path d="M91.7713 7.02844L92.8015 5.24328L90.9756 7.49768L91.7713 7.02844Z" fill="#F45F2F"/>
<path d="M93.8419 4.3864V3.45811L92.8015 5.24328L93.8419 4.3864Z" fill="#EB6F25"/>
<path d="M92.5771 6.5694L93.8419 4.3864L92.8015 5.24328L92.5771 6.5694Z" fill="#F45F2F"/>
<path d="M92.5771 6.5694L92.8015 5.24328L91.7712 7.02844L92.5771 6.5694Z" fill="#EB6F25"/>
<defs>
<linearGradient id="paint0_linear_3161_891" x1="24.6743" y1="189.074" x2="163.019" y2="50.739" gradientUnits="userSpaceOnUse">
<stop stop-color="#FF9A44"/>
<stop offset="1" stop-color="#FC6076"/>
</linearGradient>
<linearGradient id="paint1_linear_3161_891" x1="28.9176" y1="184.831" x2="158.775" y2="54.982" gradientUnits="userSpaceOnUse">
<stop stop-color="#FF9A44"/>
<stop offset="1" stop-color="#FC6076"/>
</linearGradient>
<linearGradient id="paint2_linear_3161_891" x1="150.953" y1="118.188" x2="114.676" y2="-113.168" gradientUnits="userSpaceOnUse">
<stop stop-color="#FBF7F4"/>
<stop offset="0.2" stop-color="#FAF3EF"/>
<stop offset="0.37" stop-color="#F7EDE5"/>
<stop offset="0.63" stop-color="white"/>
<stop offset="1" stop-color="#8D7B6C"/>
</linearGradient>
<linearGradient id="paint3_linear_3161_891" x1="142.334" y1="142.048" x2="282.539" y2="73.6586" gradientUnits="userSpaceOnUse">
<stop stop-color="#FBF7F4"/>
<stop offset="0.2" stop-color="#FAF3EF"/>
<stop offset="0.37" stop-color="#F7EDE5"/>
<stop offset="0.63" stop-color="white"/>
<stop offset="1" stop-color="#8D7B6C"/>
</linearGradient>
<linearGradient id="paint4_linear_3161_891" x1="37.2919" y1="118.219" x2="73.5791" y2="-113.138" gradientUnits="userSpaceOnUse">
<stop stop-color="#FBF7F4"/>
<stop offset="0.2" stop-color="#FAF3EF"/>
<stop offset="0.37" stop-color="#F7EDE5"/>
<stop offset="0.63" stop-color="white"/>
<stop offset="1" stop-color="#8D7B6C"/>
</linearGradient>
<linearGradient id="paint5_linear_3161_891" x1="45.3297" y1="142.527" x2="-25.8799" y2="107.797" gradientUnits="userSpaceOnUse">
<stop stop-color="#FBF7F4"/>
<stop offset="0.2" stop-color="#FAF3EF"/>
<stop offset="0.37" stop-color="#F7EDE5"/>
<stop offset="0.63" stop-color="white"/>
<stop offset="1" stop-color="#8D7B6C"/>
</linearGradient>
<linearGradient id="paint6_linear_3161_891" x1="26.1737" y1="166.5" x2="129.376" y2="263.37" gradientUnits="userSpaceOnUse">
<stop stop-color="#FBF7F4"/>
<stop offset="0.2" stop-color="#FAF3EF"/>
<stop offset="0.37" stop-color="#F7EDE5"/>
<stop offset="0.63" stop-color="white"/>
<stop offset="1" stop-color="#8D7B6C"/>
</linearGradient>
<linearGradient id="paint7_linear_3161_891" x1="93.8419" y1="194.93" x2="187.725" y2="194.93" gradientUnits="userSpaceOnUse">
<stop stop-color="#FBF7F4"/>
<stop offset="0.2" stop-color="#FAF3EF"/>
<stop offset="0.37" stop-color="#F7EDE5"/>
<stop offset="0.63" stop-color="white"/>
<stop offset="1" stop-color="#8D7B6C"/>
</linearGradient>
<linearGradient id="paint8_linear_3161_891" x1="0" y1="101.703" x2="26.6939" y2="101.703" gradientUnits="userSpaceOnUse">
<stop stop-color="#FBF7F4"/>
<stop offset="0.2" stop-color="#FAF3EF"/>
<stop offset="0.37" stop-color="#F7EDE5"/>
<stop offset="0.63" stop-color="white"/>
<stop offset="1" stop-color="#8D7B6C"/>
</linearGradient>
<radialGradient id="paint9_radial_3161_891" cx="0" cy="0" r="1" gradientUnits="userSpaceOnUse" gradientTransform="translate(13.1549 101.6) rotate(36.0713) scale(12.6649 3.15935)">
<stop stop-color="#FF9A44"/>
<stop offset="1" stop-color="#FC6076"/>
</radialGradient>
<radialGradient id="paint10_radial_3161_891" cx="0" cy="0" r="1" gradientUnits="userSpaceOnUse" gradientTransform="translate(13.1549 101.6) rotate(36.0713) scale(12.6649 3.15935)">
<stop stop-color="#FF9A44"/>
<stop offset="1" stop-color="#FC6076"/>
</radialGradient>
<linearGradient id="paint11_linear_3161_891" x1="6.89535" y1="101.744" x2="19.9822" y2="101.744" gradientUnits="userSpaceOnUse">
<stop stop-color="#FBF7F4"/>
<stop offset="0.2" stop-color="#FAF3EF"/>
<stop offset="0.37" stop-color="#F7EDE5"/>
<stop offset="0.63" stop-color="white"/>
<stop offset="1" stop-color="#8D7B6C"/>
</linearGradient>
<linearGradient id="paint12_linear_3161_891" x1="0" y1="119.902" x2="26.6939" y2="119.902" gradientUnits="userSpaceOnUse">
<stop stop-color="#FBF7F4"/>
<stop offset="0.2" stop-color="#FAF3EF"/>
<stop offset="0.37" stop-color="#F7EDE5"/>
<stop offset="0.63" stop-color="white"/>
<stop offset="1" stop-color="#8D7B6C"/>
</linearGradient>
<radialGradient id="paint13_radial_3161_891" cx="0" cy="0" r="1" gradientUnits="userSpaceOnUse" gradientTransform="translate(13.0978 119.765) rotate(36.0713) scale(12.6649 3.15935)">
<stop stop-color="#FF9A44"/>
<stop offset="1" stop-color="#FC6076"/>
</radialGradient>
<radialGradient id="paint14_radial_3161_891" cx="0" cy="0" r="1" gradientUnits="userSpaceOnUse" gradientTransform="translate(13.0978 119.765) rotate(36.0713) scale(12.6649 3.15935)">
<stop stop-color="#FF9A44"/>
<stop offset="1" stop-color="#FC6076"/>
</radialGradient>
<linearGradient id="paint15_linear_3161_891" x1="6.89535" y1="119.943" x2="19.9822" y2="119.943" gradientUnits="userSpaceOnUse">
<stop stop-color="#FBF7F4"/>
<stop offset="0.2" stop-color="#FAF3EF"/>
<stop offset="0.37" stop-color="#F7EDE5"/>
<stop offset="0.63" stop-color="white"/>
<stop offset="1" stop-color="#8D7B6C"/>
</linearGradient>
<linearGradient id="paint16_linear_3161_891" x1="0" y1="138.1" x2="26.6939" y2="138.1" gradientUnits="userSpaceOnUse">
<stop stop-color="#FBF7F4"/>
<stop offset="0.2" stop-color="#FAF3EF"/>
<stop offset="0.37" stop-color="#F7EDE5"/>
<stop offset="0.63" stop-color="white"/>
<stop offset="1" stop-color="#8D7B6C"/>
</linearGradient>
<radialGradient id="paint17_radial_3161_891" cx="0" cy="0" r="1" gradientUnits="userSpaceOnUse" gradientTransform="translate(13.0406 137.941) rotate(36.0713) scale(12.6649 3.15935)">
<stop stop-color="#FF9A44"/>
<stop offset="1" stop-color="#FC6076"/>
</radialGradient>
<radialGradient id="paint18_radial_3161_891" cx="0" cy="0" r="1" gradientUnits="userSpaceOnUse" gradientTransform="translate(13.0406 137.941) rotate(36.0713) scale(12.6649 3.15935)">
<stop stop-color="#FF9A44"/>
<stop offset="1" stop-color="#FC6076"/>
</radialGradient>
<linearGradient id="paint19_linear_3161_891" x1="6.89535" y1="138.141" x2="19.9822" y2="138.141" gradientUnits="userSpaceOnUse">
<stop stop-color="#FBF7F4"/>
<stop offset="0.2" stop-color="#FAF3EF"/>
<stop offset="0.37" stop-color="#F7EDE5"/>
<stop offset="0.63" stop-color="white"/>
<stop offset="1" stop-color="#8D7B6C"/>
</linearGradient>
<linearGradient id="paint20_linear_3161_891" x1="187.99" y1="101.703" x2="161.296" y2="101.703" gradientUnits="userSpaceOnUse">
<stop stop-color="#FBF7F4"/>
<stop offset="0.2" stop-color="#FAF3EF"/>
<stop offset="0.37" stop-color="#F7EDE5"/>
<stop offset="0.63" stop-color="white"/>
<stop offset="1" stop-color="#8D7B6C"/>
</linearGradient>
<radialGradient id="paint21_radial_3161_891" cx="0" cy="0" r="1" gradientUnits="userSpaceOnUse" gradientTransform="translate(174.53 101.705) rotate(143.929) scale(12.6649 3.15935)">
<stop stop-color="#FF9A44"/>
<stop offset="1" stop-color="#FC6076"/>
</radialGradient>
<radialGradient id="paint22_radial_3161_891" cx="0" cy="0" r="1" gradientUnits="userSpaceOnUse" gradientTransform="translate(174.53 101.705) rotate(143.929) scale(12.6649 3.15935)">
<stop stop-color="#FF9A44"/>
<stop offset="1" stop-color="#FC6076"/>
</radialGradient>
<linearGradient id="paint23_linear_3161_891" x1="181.105" y1="101.744" x2="168.018" y2="101.744" gradientUnits="userSpaceOnUse">
<stop stop-color="#FBF7F4"/>
<stop offset="0.2" stop-color="#FAF3EF"/>
<stop offset="0.37" stop-color="#F7EDE5"/>
<stop offset="0.63" stop-color="white"/>
<stop offset="1" stop-color="#8D7B6C"/>
</linearGradient>
<linearGradient id="paint24_linear_3161_891" x1="187.99" y1="119.902" x2="161.296" y2="119.902" gradientUnits="userSpaceOnUse">
<stop stop-color="#FBF7F4"/>
<stop offset="0.2" stop-color="#FAF3EF"/>
<stop offset="0.37" stop-color="#F7EDE5"/>
<stop offset="0.63" stop-color="white"/>
<stop offset="1" stop-color="#8D7B6C"/>
</linearGradient>
<radialGradient id="paint25_radial_3161_891" cx="0" cy="0" r="1" gradientUnits="userSpaceOnUse" gradientTransform="translate(174.587 119.871) rotate(143.929) scale(12.6649 3.15935)">
<stop stop-color="#FF9A44"/>
<stop offset="1" stop-color="#FC6076"/>
</radialGradient>
<radialGradient id="paint26_radial_3161_891" cx="0" cy="0" r="1" gradientUnits="userSpaceOnUse" gradientTransform="translate(174.587 119.871) rotate(143.929) scale(12.6649 3.15935)">
<stop stop-color="#FF9A44"/>
<stop offset="1" stop-color="#FC6076"/>
</radialGradient>
<linearGradient id="paint27_linear_3161_891" x1="181.105" y1="119.943" x2="168.018" y2="119.943" gradientUnits="userSpaceOnUse">
<stop stop-color="#FBF7F4"/>
<stop offset="0.2" stop-color="#FAF3EF"/>
<stop offset="0.37" stop-color="#F7EDE5"/>
<stop offset="0.63" stop-color="white"/>
<stop offset="1" stop-color="#8D7B6C"/>
</linearGradient>
<linearGradient id="paint28_linear_3161_891" x1="187.99" y1="138.1" x2="161.296" y2="138.1" gradientUnits="userSpaceOnUse">
<stop stop-color="#FBF7F4"/>
<stop offset="0.2" stop-color="#FAF3EF"/>
<stop offset="0.37" stop-color="#F7EDE5"/>
<stop offset="0.63" stop-color="white"/>
<stop offset="1" stop-color="#8D7B6C"/>
</linearGradient>
<radialGradient id="paint29_radial_3161_891" cx="0" cy="0" r="1" gradientUnits="userSpaceOnUse" gradientTransform="translate(174.634 138.047) rotate(143.929) scale(12.6649 3.15935)">
<stop stop-color="#FF9A44"/>
<stop offset="1" stop-color="#FC6076"/>
</radialGradient>
<radialGradient id="paint30_radial_3161_891" cx="0" cy="0" r="1" gradientUnits="userSpaceOnUse" gradientTransform="translate(174.634 138.047) rotate(143.929) scale(12.6649 3.15935)">
<stop stop-color="#FF9A44"/>
<stop offset="1" stop-color="#FC6076"/>
</radialGradient>
<linearGradient id="paint31_linear_3161_891" x1="181.105" y1="138.141" x2="168.018" y2="138.141" gradientUnits="userSpaceOnUse">
<stop stop-color="#FBF7F4"/>
<stop offset="0.2" stop-color="#FAF3EF"/>
<stop offset="0.37" stop-color="#F7EDE5"/>
<stop offset="0.63" stop-color="white"/>
<stop offset="1" stop-color="#8D7B6C"/>
</linearGradient>
<linearGradient id="paint32_linear_3161_891" x1="15.8511" y1="76.2417" x2="65.244" y2="26.8523" gradientUnits="userSpaceOnUse">
<stop stop-color="#FF9A44"/>
<stop offset="1" stop-color="#FC6076"/>
</linearGradient>
<linearGradient id="paint33_linear_3161_891" x1="136.999" y1="61.2464" x2="156.401" y2="41.8354" gradientUnits="userSpaceOnUse">
<stop stop-color="#FF9A44"/>
<stop offset="1" stop-color="#FC6076"/>
</linearGradient>
<linearGradient id="paint34_linear_3161_891" x1="30.8454" y1="199.132" x2="50.2476" y2="179.732" gradientUnits="userSpaceOnUse">
<stop stop-color="#FF9A44"/>
<stop offset="1" stop-color="#FC6076"/>
</linearGradient>
<linearGradient id="paint35_linear_3161_891" x1="122.005" y1="214.128" x2="171.398" y2="164.738" gradientUnits="userSpaceOnUse">
<stop stop-color="#FF9A44"/>
<stop offset="1" stop-color="#FC6076"/>
</linearGradient>
<radialGradient id="paint36_radial_3161_891" cx="0" cy="0" r="1" gradientUnits="userSpaceOnUse" gradientTransform="translate(73.5027 24.8189) scale(9.08838 9.08903)">
<stop stop-color="#FF9A44"/>
<stop offset="1" stop-color="#FC6076"/>
</radialGradient>
<linearGradient id="paint37_linear_3161_891" x1="94.0255" y1="53.2386" x2="94.0255" y2="43.3539" gradientUnits="userSpaceOnUse">
<stop stop-color="#FC6076"/>
<stop offset="1" stop-color="#FF9A44"/>
</linearGradient>
<radialGradient id="paint38_radial_3161_891" cx="0" cy="0" r="1" gradientUnits="userSpaceOnUse" gradientTransform="translate(114.181 24.8189) rotate(180) scale(9.08839 9.08903)">
<stop stop-color="#FF9A44"/>
<stop offset="1" stop-color="#FC6076"/>
</radialGradient>
<radialGradient id="paint39_radial_3161_891" cx="0" cy="0" r="1" gradientUnits="userSpaceOnUse" gradientTransform="translate(93.8317 27.9709) scale(17.6158 17.617)">
<stop stop-color="#FF9A44"/>
<stop offset="1" stop-color="#FC6076"/>
</radialGradient>
<linearGradient id="paint40_linear_3161_891" x1="122.994" y1="59.2878" x2="62.1457" y2="0.167514" gradientUnits="userSpaceOnUse">
<stop stop-color="#FFFBFD"/>
<stop offset="1" stop-color="#E7C6B5"/>
</linearGradient>
<radialGradient id="paint41_radial_3161_891" cx="0" cy="0" r="1" gradientUnits="userSpaceOnUse" gradientTransform="translate(74.5123 28.7466) rotate(47.8442) scale(4.78589 0.84815)">
<stop stop-color="#FF9A44"/>
<stop offset="1" stop-color="#FC6076"/>
</radialGradient>
<radialGradient id="paint42_radial_3161_891" cx="0" cy="0" r="1" gradientUnits="userSpaceOnUse" gradientTransform="translate(75.7506 32.4049) rotate(47.8442) scale(4.78588 0.84815)">
<stop stop-color="#FF9A44"/>
<stop offset="1" stop-color="#FC6076"/>
</radialGradient>
<radialGradient id="paint43_radial_3161_891" cx="0" cy="0" r="1" gradientUnits="userSpaceOnUse" gradientTransform="translate(76.9978 36.0644) rotate(47.8442) scale(4.78589 0.84815)">
<stop stop-color="#FF9A44"/>
<stop offset="1" stop-color="#FC6076"/>
</radialGradient>
<radialGradient id="paint44_radial_3161_891" cx="0" cy="0" r="1" gradientUnits="userSpaceOnUse" gradientTransform="translate(78.2531 39.7302) rotate(47.8442) scale(4.78588 0.84815)">
<stop stop-color="#FF9A44"/>
<stop offset="1" stop-color="#FC6076"/>
</radialGradient>
<radialGradient id="paint45_radial_3161_891" cx="0" cy="0" r="1" gradientUnits="userSpaceOnUse" gradientTransform="translate(109.547 30.2045) rotate(132.156) scale(4.78589 0.84815)">
<stop stop-color="#FF9A44"/>
<stop offset="1" stop-color="#FC6076"/>
</radialGradient>
<radialGradient id="paint46_radial_3161_891" cx="0" cy="0" r="1" gradientUnits="userSpaceOnUse" gradientTransform="translate(108.298 33.873) rotate(132.156) scale(4.78589 0.84815)">
<stop stop-color="#FF9A44"/>
<stop offset="1" stop-color="#FC6076"/>
</radialGradient>
<radialGradient id="paint47_radial_3161_891" cx="0" cy="0" r="1" gradientUnits="userSpaceOnUse" gradientTransform="translate(107.061 37.5325) rotate(132.156) scale(4.78589 0.84815)">
<stop stop-color="#FF9A44"/>
<stop offset="1" stop-color="#FC6076"/>
</radialGradient>
<radialGradient id="paint48_radial_3161_891" cx="0" cy="0" r="1" gradientUnits="userSpaceOnUse" gradientTransform="translate(105.813 41.1907) rotate(132.156) scale(4.78589 0.84815)">
<stop stop-color="#FF9A44"/>
<stop offset="1" stop-color="#FC6076"/>
</radialGradient>
<linearGradient id="paint49_linear_3161_891" x1="76.6341" y1="21.0241" x2="89.5789" y2="10.3242" gradientUnits="userSpaceOnUse">
<stop stop-color="#FC6076"/>
<stop offset="1" stop-color="#FF9A44"/>
</linearGradient>
<linearGradient id="paint50_linear_3161_891" x1="111.07" y1="21.0241" x2="97.4724" y2="10.2631" gradientUnits="userSpaceOnUse">
<stop stop-color="#FC6076"/>
<stop offset="1" stop-color="#FF9A44"/>
</linearGradient>
<radialGradient id="paint51_radial_3161_891" cx="0" cy="0" r="1" gradientUnits="userSpaceOnUse" gradientTransform="translate(95.9023 44.9351) scale(1.73404 1.73416)">
<stop stop-color="#FF9A44"/>
<stop offset="1" stop-color="#FC6076"/>
</radialGradient>
<radialGradient id="paint52_radial_3161_891" cx="0" cy="0" r="1" gradientUnits="userSpaceOnUse" gradientTransform="translate(91.7712 44.9351) scale(1.73403 1.73416)">
<stop stop-color="#FF9A44"/>
<stop offset="1" stop-color="#FC6076"/>
</radialGradient>
<linearGradient id="paint53_linear_3161_891" x1="88.5378" y1="20.1264" x2="86.7016" y2="21.8503" gradientUnits="userSpaceOnUse">
<stop stop-color="#FFFBFD"/>
<stop offset="1" stop-color="#E7C6B5"/>
</linearGradient>
<linearGradient id="paint54_linear_3161_891" x1="98.4932" y1="20.106" x2="100.625" y2="21.5544" gradientUnits="userSpaceOnUse">
<stop stop-color="#FFFBFD"/>
<stop offset="1" stop-color="#E7C6B5"/>
</linearGradient>
<linearGradient id="paint55_linear_3161_891" x1="93.9031" y1="20.8303" x2="93.7807" y2="44.4046" gradientUnits="userSpaceOnUse">
<stop stop-color="#FFFBFD"/>
<stop offset="1" stop-color="#E7C6B5"/>
</linearGradient>
<linearGradient id="paint56_linear_3161_891" x1="88.7928" y1="27.9301" x2="92.0466" y2="27.9301" gradientUnits="userSpaceOnUse">
<stop stop-color="#FFFBFD"/>
<stop offset="1" stop-color="#E7C6B5"/>
</linearGradient>
<linearGradient id="paint57_linear_3161_891" x1="90.3126" y1="27.0427" x2="90.7717" y2="30.7966" gradientUnits="userSpaceOnUse">
<stop stop-color="#FFFBFD"/>
<stop offset="1" stop-color="#E7C6B5"/>
</linearGradient>
<linearGradient id="paint58_linear_3161_891" x1="95.4331" y1="28.0321" x2="98.6972" y2="28.0321" gradientUnits="userSpaceOnUse">
<stop stop-color="#FFFBFD"/>
<stop offset="1" stop-color="#E7C6B5"/>
</linearGradient>
<linearGradient id="paint59_linear_3161_891" x1="96.9529" y1="27.1345" x2="97.4222" y2="30.8884" gradientUnits="userSpaceOnUse">
<stop stop-color="#FFFBFD"/>
<stop offset="1" stop-color="#E7C6B5"/>
</linearGradient>
<linearGradient id="paint60_linear_3161_891" x1="100.135" y1="22.2992" x2="100.564" y2="24.6556" gradientUnits="userSpaceOnUse">
<stop stop-color="#FFFBFD"/>
<stop offset="1" stop-color="#E7C6B5"/>
</linearGradient>
<linearGradient id="paint61_linear_3161_891" x1="100.197" y1="25.6043" x2="100.533" y2="27.4303" gradientUnits="userSpaceOnUse">
<stop stop-color="#FFFBFD"/>
<stop offset="1" stop-color="#E7C6B5"/>
</linearGradient>
<linearGradient id="paint62_linear_3161_891" x1="101.584" y1="23.962" x2="102.267" y2="26.1041" gradientUnits="userSpaceOnUse">
<stop stop-color="#FFFBFD"/>
<stop offset="1" stop-color="#E7C6B5"/>
</linearGradient>
<linearGradient id="paint63_linear_3161_891" x1="98.7992" y1="24.1762" x2="99.2072" y2="26.0022" gradientUnits="userSpaceOnUse">
<stop stop-color="#FFFBFD"/>
<stop offset="1" stop-color="#E7C6B5"/>
</linearGradient>
<linearGradient id="paint64_linear_3161_891" x1="87.936" y1="20.5243" x2="86.3854" y2="26.7876" gradientUnits="userSpaceOnUse">
<stop stop-color="#FFFBFD"/>
<stop offset="1" stop-color="#E7C6B5"/>
</linearGradient>
<linearGradient id="paint65_linear_3161_891" x1="92.2303" y1="24.2986" x2="92.2098" y2="25.8696" gradientUnits="userSpaceOnUse">
<stop stop-color="#FFFBFD"/>
<stop offset="1" stop-color="#E7C6B5"/>
</linearGradient>
<linearGradient id="paint66_linear_3161_891" x1="95.1577" y1="24.3394" x2="95.1373" y2="25.7369" gradientUnits="userSpaceOnUse">
<stop stop-color="#FFFBFD"/>
<stop offset="1" stop-color="#E7C6B5"/>
</linearGradient>
</defs>
</svg>
